<?xml version="1.0" encoding="UTF-8"?>
<svg width="20px" height="20px" viewBox="0 0 20 20" xmlns="http://www.w3.org/2000/svg" xmlns:xlink="http://www.w3.org/1999/xlink" version="1.1">
 <!-- Generated by Pixelmator Pro 2.1.2 -->
 <path id="Path" d="M3.5 3 L16.5 3 17 3.5 17 13.5 16.5 14 9.707 14 6.854 16.854 6 16.5 6 14 3.5 14 3 13.5 3 3.5 Z M9.5 13 L16 13 16 4 4 4 4 13 6.5 13 7 13.5 7 15.293 9.146 13.146 Z M9.5 5 L10.5 5 10.5 10 9.5 10 Z M9.5 12 L10.5 12 10.5 11 9.5 11 Z" fill="#424242" fill-opacity="1" stroke="none"/>
</svg>
