<svg width="16px" height="16px" xmlns="http://www.w3.org/2000/svg"
     viewBox="0 0 16 16">
  <path fill="#fe536a" style="fill-opacity:0;stroke:#fe536a;stroke-width:1"
        d="m 13.5,5.25 v 7.071429 C 13.5,12.972098 13.038098,13.5 12.46875,13.5 H 3.53125 C 2.9619018,13.5 2.5,12.972098 2.5,12.321429 V 5.25 C 2.5,4.5993304 2.9619018,4.0714286 3.53125,4.0714286 H 5.421875 L 5.6861206,3.2636161 C 5.8365357,2.8044643 6.2210937,2.5 6.6507812,2.5 h 2.6962772 c 0.4296873,0 0.8142946,0.3044643 0.9646606,0.7636161 l 0.266406,0.8078125 H 12.46875 C 13.038098,4.0714286 13.5,4.5993304 13.5,5.25 Z M 10.578125,8.7857143 C 10.578125,7.1602674 9.4222908,5.8392857 8,5.8392857 c -1.4222411,0 -2.578125,1.3209817 -2.578125,2.9464286 0,1.6254467 1.1558839,2.9464277 2.578125,2.9464277 1.4222908,0 2.578125,-1.320981 2.578125,-2.9464277 z m -0.6875,0 c 0,1.190849 -0.8486201,2.1607147 -1.890625,2.1607147 -1.0420044,0 -1.890625,-0.9698657 -1.890625,-2.1607147 0,-1.1908487 0.8486206,-2.1607148 1.890625,-2.1607148 1.0420049,0 1.890625,0.9698661 1.890625,2.1607148 z"></path>
</svg>